<svg width="28" height="32" viewBox="0 0 28 32" fill="none" xmlns="http://www.w3.org/2000/svg">
<path d="M28 4.625V7.4375C28 10 21.6875 12 14 12C6.25 12 0 10 0 7.4375V4.625C0 2.0625 6.25 0 14 0C21.6875 0 28 2.0625 28 4.625ZM28 11V17.4375C28 20 21.6875 22 14 22C6.25 22 0 20 0 17.4375V11C3 13.125 8.5 14.0625 14 14.0625C19.4375 14.0625 24.9375 13.125 28 11ZM28 21V27.4375C28 30 21.6875 32 14 32C6.25 32 0 30 0 27.4375V21C3 23.125 8.5 24.0625 14 24.0625C19.4375 24.0625 24.9375 23.125 28 21Z" fill="#F7F7F7"/>
</svg>
